<svg width="16" height="16" viewBox="0 0 16 16" fill="none" xmlns="http://www.w3.org/2000/svg">
<path d="M9.41177 10.8602C9.60628 10.8602 9.77726 10.7862 9.92471 10.6381C10.0722 10.49 10.1462 10.3191 10.1468 10.1252C10.1475 9.9313 10.0734 9.76031 9.92471 9.61224C9.776 9.46416 9.60502 9.39012 9.41177 9.39012C9.21851 9.39012 9.04753 9.46416 8.89882 9.61224C8.75012 9.76031 8.67608 9.9313 8.67671 10.1252C8.67733 10.3191 8.75137 10.49 8.89882 10.6381C9.04628 10.7862 9.21726 10.8609 9.41177 10.8602ZM8.99576 8.20988H9.82777C9.85224 7.81522 9.91467 7.51812 10.0151 7.31859C10.1148 7.11906 10.3555 6.84047 10.7369 6.48282C11.1347 6.12141 11.4121 5.79828 11.5689 5.51341C11.7258 5.22981 11.8042 4.90384 11.8042 4.53553C11.8042 3.90181 11.5784 3.37381 11.1266 2.95153C10.6748 2.52863 10.1032 2.31718 9.41177 2.31718C8.8891 2.31718 8.42479 2.45835 8.01882 2.74071C7.61286 3.02306 7.30384 3.408 7.09177 3.89553L7.85506 4.23153C8.03263 3.86384 8.2491 3.58777 8.50447 3.4033C8.75984 3.21883 9.06227 3.1269 9.41177 3.12753C9.86102 3.12753 10.2334 3.26055 10.5289 3.52659C10.8238 3.79263 10.9713 4.13616 10.9713 4.55718C10.9713 4.81318 10.8998 5.0513 10.7567 5.27153C10.613 5.49177 10.3661 5.75686 10.016 6.06682C9.61945 6.41318 9.35028 6.73098 9.20847 7.02024C9.06667 7.30949 8.99576 7.70604 8.99576 8.20988ZM4.34447 13.1765C3.9109 13.1765 3.54918 13.0315 3.2593 12.7416C2.96941 12.4518 2.82416 12.09 2.82353 11.6565V1.52C2.82353 1.08706 2.96879 0.725335 3.2593 0.434825C3.54981 0.144316 3.91153 -0.000625423 4.34447 2.0284e-06H14.48C14.9129 2.0284e-06 15.2747 0.144943 15.5652 0.434825C15.8557 0.724708 16.0006 1.08643 16 1.52V11.6565C16 12.0894 15.8551 12.4508 15.5652 12.7407C15.2753 13.0306 14.9133 13.1758 14.4791 13.1765H4.34447ZM4.34447 12.2353H14.48C14.6243 12.2353 14.757 12.1751 14.8781 12.0546C14.9992 11.9341 15.0595 11.8014 15.0588 11.6565V1.52C15.0588 1.37569 14.9986 1.24298 14.8781 1.12188C14.7576 1.00079 14.6246 0.940551 14.4791 0.941178H4.34447C4.19953 0.941178 4.06651 1.00141 3.94541 1.12188C3.82432 1.24235 3.76408 1.37506 3.76471 1.52V11.6565C3.76471 11.8008 3.82494 11.9335 3.94541 12.0546C4.06588 12.1757 4.19859 12.2359 4.34353 12.2353M1.52 16C1.08706 16 0.725335 15.8551 0.434825 15.5652C0.144316 15.2753 -0.000625423 14.9136 2.0284e-06 14.48V3.40235H0.941178V14.48C0.941178 14.6243 1.00141 14.757 1.12188 14.8781C1.24235 14.9992 1.37506 15.0595 1.52 15.0588H12.5976V16H1.52Z" fill="#202C4B"/>
</svg>
